<?xml version="1.0" standalone="no"?>
<!DOCTYPE svg PUBLIC "-//W3C//DTD SVG 20010904//EN"
 "http://www.w3.org/TR/2001/REC-SVG-20010904/DTD/svg10.dtd">
<svg version="1.0" xmlns="http://www.w3.org/2000/svg"
 width="600.000000pt" height="600.000000pt" viewBox="0 0 600.000000 600.000000"
 preserveAspectRatio="xMidYMid meet">
<metadata>
Created by potrace 1.13, written by Peter Selinger 2001-2015
</metadata>
<g transform="translate(0.000000,600.000000) scale(0.100000,-0.100000)"
fill="#000000" stroke="none">
<path d="M4846 5651 c-29 -82 -115 -211 -200 -300 -211 -221 -454 -336 -821
-391 -289 -43 -572 -123 -817 -231 -51 -22 -99 -43 -106 -46 -13 -6 151 156
238 234 25 22 78 62 119 88 76 49 308 164 416 205 33 13 64 26 68 30 10 8 -92
-5 -198 -26 -303 -60 -764 -287 -1000 -493 -164 -142 -296 -219 -495 -285
l-105 -36 62 0 c57 0 63 -2 68 -23 9 -35 -12 -144 -36 -191 -45 -88 -58 -96
-317 -206 -315 -133 -518 -254 -638 -379 l-44 -46 0 40 c0 64 17 109 61 159
40 45 40 46 12 35 -124 -47 -236 -174 -313 -356 l-27 -65 -34 29 c-54 47 -82
63 -106 63 -23 0 -23 -1 12 -70 43 -85 112 -287 149 -435 16 -60 30 -117 33
-125 3 -9 10 0 18 24 27 78 114 150 208 172 l27 6 0 -71 c0 -44 4 -71 11 -71
16 0 99 89 144 154 22 32 41 52 42 45 1 -8 5 -44 8 -81 6 -62 8 -67 25 -58 37
20 84 76 111 135 l29 60 0 -72 c0 -44 4 -73 10 -73 22 0 92 78 124 140 l35 65
-5 -45 c-3 -25 -6 -55 -8 -67 -2 -13 0 -23 4 -23 17 0 109 92 124 125 20 41
22 42 22 13 0 -13 1 -41 2 -62 l2 -39 83 88 c88 95 169 154 246 180 48 16 50
15 117 -12 93 -37 175 -117 198 -193 19 -63 20 -101 5 -170 -10 -47 -13 -51
-33 -45 -11 4 -87 9 -168 12 -154 6 -245 -7 -350 -48 -53 -21 -58 -17 -58 52
0 21 -3 39 -7 39 -15 0 -82 -56 -134 -112 l-55 -60 -14 56 c-7 31 -19 56 -26
56 -7 0 -46 -36 -86 -81 l-75 -80 -12 56 -12 55 -27 -21 c-33 -25 -95 -101
-124 -151 -24 -43 -38 -41 -39 5 -1 72 -12 73 -57 8 -70 -99 -94 -164 -100
-261 -3 -62 0 -94 11 -120 l15 -35 1 51 c1 54 15 104 39 142 l15 23 51 -50
c28 -28 87 -70 130 -93 94 -51 129 -91 160 -184 23 -67 24 -68 32 -39 22 77
-4 203 -53 257 -15 17 -14 18 23 18 38 0 150 23 549 114 408 93 668 127 813
107 135 -19 233 -72 262 -142 7 -16 15 -29 17 -29 18 0 140 100 189 154 73 79
117 152 152 248 25 68 26 84 26 243 0 156 -2 177 -27 258 -15 49 -34 102 -42
118 -25 48 2 34 74 -38 109 -109 151 -220 151 -394 0 -161 -42 -304 -126 -431
-78 -116 -223 -232 -348 -276 -38 -13 -57 -29 -87 -68 -62 -84 -142 -139 -597
-410 -161 -97 -328 -202 -371 -235 -316 -238 -495 -647 -466 -1063 10 -145 12
-147 65 -80 71 89 240 247 326 303 182 120 304 168 879 341 423 127 543 168
665 230 227 114 433 289 553 468 53 79 124 223 133 271 4 17 11 31 17 31 18 0
1 -208 -28 -334 -14 -65 -44 -172 -65 -237 -21 -66 -35 -119 -31 -119 3 0 29
19 58 42 233 192 370 599 390 1163 l6 180 25 -55 c51 -117 66 -216 66 -455 1
-121 -2 -249 -6 -285 l-6 -65 25 55 c177 383 221 829 117 1162 -86 273 -279
523 -534 689 -23 15 -21 16 45 7 164 -22 358 -129 570 -314 41 -36 75 -63 75
-60 0 3 -12 38 -26 78 -89 248 -234 424 -429 521 -94 47 -165 64 -342 82 -159
17 -361 48 -427 67 l-41 11 45 14 c29 10 124 18 272 23 383 14 534 42 717 131
89 44 116 63 190 137 55 55 99 109 119 148 18 34 32 65 32 68 0 3 -21 -9 -47
-28 -69 -49 -120 -72 -217 -100 -185 -54 -236 -59 -616 -62 -348 -3 -482 -11
-669 -40 -52 -8 -96 -13 -98 -10 -8 7 100 54 163 70 33 8 148 27 255 41 306
39 458 89 637 208 106 71 243 205 306 300 93 142 123 299 89 470 -8 39 -17 34
-37 -22z m-2132 -1635 c37 -21 74 -35 82 -32 30 11 2 -15 -36 -34 -86 -44
-231 -60 -365 -41 l-50 7 38 23 c20 13 37 30 37 39 0 20 27 55 55 71 12 7 50
10 96 8 65 -3 85 -9 143 -41z"/>
</g>
</svg>
