<?xml version="1.0" standalone="no"?>
<!DOCTYPE svg PUBLIC "-//W3C//DTD SVG 20010904//EN"
 "http://www.w3.org/TR/2001/REC-SVG-20010904/DTD/svg10.dtd">
<svg version="1.0" xmlns="http://www.w3.org/2000/svg"
 width="128.000000pt" height="128.000000pt" viewBox="0 0 128.000000 128.000000"
 preserveAspectRatio="xMidYMid meet">
<metadata>
Created by potrace 1.13, written by Peter Selinger 2001-2015
</metadata>
<g transform="translate(0.000000,128.000000) scale(0.100000,-0.100000)"
fill="#000000" stroke="none">
<path d="M490 1260 c-85 -22 -129 -42 -193 -84 -294 -196 -374 -589 -180 -883
71 -108 183 -197 305 -243 82 -30 93 -32 205 -35 185 -5 341 59 470 194 217
224 228 611 26 842 -35 40 -73 79 -77 79 -2 0 -25 -22 -52 -49 -50 -50 -119
-80 -188 -82 -17 0 -40 -4 -51 -8 -26 -10 220 -2 260 9 17 4 39 11 50 16 17 6
17 4 -5 -21 -38 -42 -96 -65 -170 -65 -89 0 -111 -16 -34 -25 32 -4 74 -11 91
-17 34 -10 97 -75 106 -108 4 -17 2 -17 -27 5 -18 13 -49 32 -71 41 l-38 16
46 -52 c76 -85 97 -210 53 -312 l-14 -33 -2 60 c-2 94 -16 111 -24 32 -8 -78
-30 -150 -58 -189 -29 -41 -38 -34 -22 19 24 78 18 91 -18 37 -45 -67 -111
-108 -231 -144 -153 -47 -202 -68 -252 -112 l-45 -40 0 51 c0 105 46 170 175
247 52 31 105 66 117 78 13 12 36 28 51 36 45 23 70 67 75 129 3 44 0 61 -15
79 -18 23 -18 23 -18 -47 0 -54 -4 -75 -21 -97 -32 -43 -50 -51 -72 -31 -23
21 -79 22 -180 1 -149 -30 -153 -31 -146 -62 4 -21 3 -24 -5 -11 -6 10 -26 26
-45 37 -32 19 -35 19 -39 4 -4 -13 -5 -13 -5 3 -1 11 5 31 13 45 8 14 14 21
15 16 0 -5 9 -1 20 9 11 10 23 15 27 12 3 -4 15 0 25 10 13 12 18 13 18 3 0
-9 5 -8 19 4 10 10 21 13 22 9 2 -5 33 -6 69 -3 74 6 84 19 50 63 -27 34 -59
34 -94 2 -14 -13 -26 -22 -26 -20 0 3 -16 -4 -35 -15 -24 -13 -35 -16 -35 -7
0 6 -5 4 -11 -6 -8 -13 -14 -15 -23 -7 -10 7 -17 6 -27 -6 -12 -15 -14 -15
-19 1 -5 15 -8 15 -30 -3 l-25 -19 -20 63 c-18 54 -19 61 -4 54 12 -7 19 -1
32 25 9 19 26 39 39 46 19 9 21 9 11 -2 -7 -7 -13 -20 -13 -28 0 -11 6 -9 23
7 12 11 57 37 99 57 87 41 101 54 96 87 -2 18 6 27 44 48 25 14 74 44 109 68
53 36 185 89 195 79 2 -2 -17 -13 -44 -25 -26 -12 -63 -35 -82 -52 -32 -29
-33 -31 -10 -25 14 4 61 16 105 27 44 11 96 23 115 28 53 14 132 67 128 87 -4
23 -140 88 -220 106 -88 20 -208 18 -288 -3z"/>
</g>
</svg>
